<?xml version="1.0" encoding="UTF-8" standalone="no"?>
<!DOCTYPE svg PUBLIC "-//W3C//DTD SVG 1.1//EN" "http://www.w3.org/Graphics/SVG/1.1/DTD/svg11.dtd">
<svg width="100%" height="100%" viewBox="0 0 800 800" version="1.1" xmlns="http://www.w3.org/2000/svg" xmlns:xlink="http://www.w3.org/1999/xlink" xml:space="preserve" xmlns:serif="http://www.serif.com/" style="fill-rule:evenodd;clip-rule:evenodd;stroke-linejoin:round;stroke-miterlimit:2;">
    <g transform="matrix(0.416667,0,0,0.416667,0,0)">
        <path d="M1154.976,0L988.342,166.52C927.894,226.967 924.906,319.938 972.942,387.166L670.359,689.751C666.337,693.773 663.809,698.715 661.28,703.541C514.068,642.519 332.609,669.295 216.654,785.25L118.627,883.391L536.937,1301.586L16.808,1821.715C-5.602,1844.124 -5.602,1880.439 16.808,1902.963C28.07,1914.11 42.78,1919.741 57.49,1919.741C72.2,1919.741 86.91,1914.111 98.057,1902.963L618.185,1382.834L1036.38,1801.144L1134.522,1703.002C1210.484,1627.155 1252.315,1526.14 1252.315,1418.689C1252.315,1362.494 1240.248,1308.481 1218.528,1258.491C1221.286,1256.652 1224.389,1255.503 1226.803,1252.975L1530.766,949.011C1559.956,970.156 1594.662,982.108 1631.436,982.108C1677.519,982.108 1720.729,964.18 1753.366,931.543L1920,764.909L1154.976,0Z" style="fill:white;"/>
    </g>
</svg>
