<?xml version="1.0" encoding="UTF-8" standalone="no"?>
<!DOCTYPE svg PUBLIC "-//W3C//DTD SVG 1.1//EN" "http://www.w3.org/Graphics/SVG/1.1/DTD/svg11.dtd">
<svg width="100%" height="100%" viewBox="0 0 800 800" version="1.1" xmlns="http://www.w3.org/2000/svg" xmlns:xlink="http://www.w3.org/1999/xlink" xml:space="preserve" xmlns:serif="http://www.serif.com/" style="fill-rule:evenodd;clip-rule:evenodd;stroke-linejoin:round;stroke-miterlimit:2;">
    <g transform="matrix(0.416667,0,0,0.416667,0,0)">
        <path d="M692.08,851.622L1035.083,1194.624C1088.392,1247.932 1117.756,1318.859 1117.756,1394.191C1117.756,1469.636 1088.392,1540.563 1035.083,1593.871L1018.593,1610.361L276.232,868.111L292.721,851.621C399.451,744.779 585.464,744.779 692.081,851.621L692.08,851.622ZM1032.26,464.233L1422.697,854.671L1136.504,1140.864C1129.164,1132.28 1123.064,1122.794 1114.933,1114.774L771.93,771.773C767.178,766.954 761.911,762.968 756.621,759.016L754.638,757.534C751.664,755.309 748.702,753.063 745.841,750.654L1032.26,464.234L1032.26,464.233ZM1135.036,159.744L1727.186,751.782L1643.272,835.697C1621.248,857.72 1585.446,857.72 1563.422,835.697L1542.98,815.255C1542.754,815.029 1542.754,814.803 1542.528,814.577C1542.302,814.464 1542.076,814.464 1541.963,814.238L1072.806,345.08C1072.58,344.855 1072.466,344.516 1072.241,344.29C1072.015,344.064 1071.676,343.951 1071.451,343.838L1051.121,323.508C1029.097,301.485 1029.097,265.57 1051.121,243.546L1135.036,159.744ZM1135.036,0.045L971.272,163.697C911.977,222.991 908.928,314.473 956.25,380.544L658.876,677.918C654.81,681.871 652.439,686.728 649.841,691.471C505.276,631.386 326.942,657.815 212.871,771.772L116.533,868.112L527.639,1279.217L16.579,1790.276C-5.557,1812.299 -5.557,1848.102 16.579,1870.126C27.535,1881.193 41.992,1886.728 56.448,1886.728C70.904,1886.728 85.361,1881.193 96.429,1870.125L607.488,1359.066L1018.594,1770.059L1114.933,1673.72C1189.587,1599.18 1230.697,1499.904 1230.697,1394.191C1230.697,1339.076 1218.952,1285.881 1197.606,1236.864C1200.203,1234.944 1203.253,1233.814 1205.624,1231.443L1506.387,930.68C1535.752,951.575 1568.843,965.128 1603.29,965.128C1646.66,965.128 1690.142,948.525 1723.12,915.546L1886.886,751.782L1135.036,0.045Z" style="fill:white;"/>
    </g>
</svg>
