<svg xmlns="http://www.w3.org/2000/svg" width="24" height="24" viewBox="0 0 24 24" fill="none" stroke="#e8e8ea" stroke-width="1.8" stroke-linecap="round" stroke-linejoin="round" aria-hidden="true">
  <circle cx="12" cy="12" r="3"/>
  <path d="M19.4 15a1.65 1.65 0 0 0 .33 1.82l.06.06a2 2 0 1 1-2.83 2.83l-.06-.06a1.65 1.65 0 0 0-1.82-.33 1.65 1.65 0 0 0-1 1.51V21a2 2 0 1 1-4 0v-.09a1.65 1.65 0 0 0-1-1.51 1.65 1.65 0 0 0-1.82.33l-.06.06a2 2 0 1 1-2.83-2.83l.06-.06a1.65 1.65 0 0 0 .33-1.82 1.65 1.65 0 0 0-1.51-1H3a2 2 0 1 1 0-4h.09a1.65 1.65 0 0 0 1.51-1 1.65 1.65 0 0 0-.33-1.82l-.06-.06A2 2 0 1 1 7.04 3.5l.06.06a1.65 1.65 0 0 0 1.82.33h.01A1.65 1.65 0 0 0 10 2.38V2a2 2 0 1 1 4 0v.38a1.65 1.65 0 0 0 1.07 1.51h.01c.6.24 1.28.1 1.76-.33l.06-.06a2 2 0 1 1 2.83 2.83l-.06.06c-.43.48-.57 1.16-.33 1.76v.01c.24.6.9 1.03 1.51 1.07H22a2 2 0 1 1 0 4h-.38c-.69.05-1.27.46-1.51 1.07z"/>
</svg>
